<svg id="Capa_1" data-name="Capa 1" xmlns="http://www.w3.org/2000/svg" viewBox="0 0 221.99 196.17"><defs><style>.cls-1{fill:#fff;}</style></defs><path class="cls-1" d="M221,257.57a8.22,8.22,0,0,1-4.33-1.23L151.5,216v37.22c0,31.31,32.35,45.72,72.25,45.72S296,284.55,296,253.24v-38l-70.85,41.21A8.28,8.28,0,0,1,221,257.57Z" transform="translate(-112.76 -102.79)"/><path class="cls-1" d="M330.08,165,225.34,104.06a9.43,9.43,0,0,0-9.66.13L117.21,165.1a9.4,9.4,0,0,0,0,16l5.91,3.92v76.63l7.24-8.21,8.81,10V194.65L215.68,242a9.41,9.41,0,0,0,9.66.13l104.74-60.91a9.39,9.39,0,0,0,0-16.24Z" transform="translate(-112.76 -102.79)"/><path class="cls-1" d="M225.15,256.45a8.28,8.28,0,0,1-4.14,1.12,8.12,8.12,0,0,1-3.7-1v42.21c2.13.08,4.27.14,6.44.14,39.9,0,72.25-14.41,72.25-45.72v-38Z" transform="translate(-112.76 -102.79)"/><path class="cls-1" d="M330.08,165,225.34,104.06a9.37,9.37,0,0,0-8-.59V242.7a8.92,8.92,0,0,0,8-.58l104.74-60.91a9.39,9.39,0,0,0,0-16.24Z" transform="translate(-112.76 -102.79)"/></svg>